<svg xmlns="http://www.w3.org/2000/svg" fill="none" viewBox="0 0 68 15">
  <path fill="#fff" d="M5.001 15c-1.02 0-1.905-.167-2.653-.5-.749-.333-1.327-.807-1.736-1.42-.394-.627-.598-1.36-.612-2.2h2.552c0 .6.217 1.073.653 1.42.45.333 1.055.5 1.817.5.735 0 1.306-.167 1.715-.5.422-.333.632-.793.632-1.38 0-.493-.15-.92-.449-1.28-.285-.373-.7-.627-1.245-.76L3.96 8.42c-1.17-.293-2.075-.82-2.715-1.58C.62 6.08.306 5.16.306 4.08c0-.827.19-1.547.572-2.16.38-.613.918-1.087 1.613-1.42C3.198.167 4.028 0 4.98 0c1.443 0 2.586.367 3.43 1.1.843.72 1.272 1.693 1.286 2.92H7.145c0-.573-.19-1.02-.572-1.34-.38-.333-.918-.5-1.612-.5-.667 0-1.184.153-1.552.46-.367.307-.551.74-.551 1.3 0 .507.136.94.408 1.3.286.347.694.593 1.225.74l1.776.48c1.184.293 2.09.82 2.715 1.58.626.747.94 1.673.94 2.78 0 .827-.205 1.56-.613 2.2-.409.627-.98 1.113-1.715 1.46-.735.347-1.6.52-2.593.52Zm11.567 0c-.953 0-1.79-.173-2.51-.52a4.055 4.055 0 0 1-1.654-1.5c-.381-.653-.572-1.42-.572-2.3V4.32c0-.893.19-1.66.572-2.3A3.921 3.921 0 0 1 14.057.54C14.78.18 15.616 0 16.568 0c.966 0 1.797.18 2.49.54a3.92 3.92 0 0 1 1.654 1.48c.395.64.592 1.407.592 2.3h-2.572c0-.693-.19-1.22-.572-1.58-.367-.36-.898-.54-1.592-.54-.694 0-1.232.18-1.613.54-.38.36-.571.88-.571 1.56v6.38c0 .68.19 1.207.572 1.58.38.36.918.54 1.612.54.694 0 1.225-.18 1.592-.54.381-.373.572-.9.572-1.58h2.572c0 .867-.197 1.627-.592 2.28a4.01 4.01 0 0 1-1.653 1.52c-.694.347-1.524.52-2.49.52Zm6.892-.2V.2h2.552v5.86h4.001V.2h2.552v14.6h-2.552V8.38h-4.001v6.42H23.46Zm11.75 0V.2h8.942v2.18h-6.43v3.8h5.715v2.16h-5.715v4.28h6.43v2.18h-8.941Zm10.873 0V.2h3.022l1.449 4.64c.15.467.272.893.367 1.28.096.387.157.667.184.84.027-.173.089-.453.184-.84.095-.387.21-.813.347-1.28L53.024.2h3.021v14.6h-2.388v-4.54c0-.667.02-1.393.061-2.18a143.6 143.6 0 0 1 .143-2.36c.055-.787.116-1.533.184-2.24.081-.707.15-1.327.204-1.86l-2 6.9H49.92l-2.062-6.9a67.99 67.99 0 0 1 .388 4c.068.773.123 1.56.163 2.36.041.8.062 1.56.062 2.28v4.54h-2.389Zm11.097 0L60.938.2h3.286L68 14.8h-2.613l-.817-3.54h-3.96l-.816 3.54H57.18Zm3.9-5.58h3.02l-.897-3.92c-.15-.653-.28-1.24-.388-1.76-.109-.533-.184-.92-.225-1.16a40.4 40.4 0 0 1-.224 1.16c-.096.52-.225 1.1-.388 1.74l-.898 3.94Z"/>
</svg>
